<?xml version="1.0" encoding="utf-8"?>
<svg xmlns="http://www.w3.org/2000/svg" xmlns:xlink="http://www.w3.org/1999/xlink" width="602.307" height="524.812"
  viewBox="0 0 602.307 524.812">

  <defs>
    <linearGradient id="gradient_0" gradientUnits="userSpaceOnUse" x1="645.62939" y1="867.72906" x2="198.27846"
      y2="-30.797499">
      <stop offset="0" stop-color="#00081C" />
      <stop offset="1" stop-color="#261341" />
    </linearGradient>
  </defs>

  <g transform="translate(-98.023 -143.992)">
    <path fill="#F83F6F"
      d="M499.426 249.63C507.541 249.22 515.673 249.322 523.774 249.934C573.949 253.959 620.499 277.652 653.278 315.85C681.167 348.67 697.491 389.748 699.738 432.757C700.33 444.307 699.641 455.709 698.739 467.227C679.002 419.726 653.504 381.189 611.964 350.055C573.749 321.413 527.566 300.293 479.333 297.78C463.476 296.955 448.173 298.225 432.494 300.477C444.528 302.891 456.65 304.498 468.664 307.169C494.433 312.898 520.158 321.818 544.247 332.575C582.852 349.994 617.419 375.238 645.761 406.71C655.562 417.499 664.545 428.994 673.355 440.597C680.263 449.695 692.855 466.526 696.827 476.882C695.002 487.397 692.699 497.537 689.432 507.703C680.219 494.021 670.27 481.068 658.538 469.43C623.303 434.475 573.135 421.428 524.87 419.118C517.33 418.757 509.718 418.964 502.169 418.999C476.35 419.254 447.137 424.139 423.762 435.398C466.33 431.194 509.28 433.065 551.32 440.955C592.512 449.087 663.619 476.881 687.762 512.868C678.608 543.186 660.686 571.881 639.748 595.418C605.17 634.288 551.559 662.986 499.169 665.912C447.383 668.804 397.116 648.949 358.704 614.634C319.868 579.4 296.393 530.346 293.317 478C290.237 421.644 315.188 361.504 352.513 319.957C390.302 278.072 443.1 252.798 499.426 249.63Z" />
    <path fill="#0D0D2B"
      d="M640.834 506.178L641.184 506.854C628.75 544.949 599.519 576.602 566.606 598.407C525.292 626.064 474.674 636.155 425.911 626.457C461.814 622.79 498.816 616.597 531.774 601.229C511.194 599.776 491.199 593.014 472.437 584.735C441 570.71 409.769 549.687 390.822 520.452C404.457 528.41 417.063 538.354 430.409 546.84C466.182 569.583 508.053 587.443 550.752 590.441C556.756 587.576 562.547 583.416 567.956 579.549C596.234 559.331 619.204 533.171 640.834 506.178Z" />
    <path fill="#F83F6F"
      d="M243.252 143.992C248.811 147.305 255.182 155.968 259.345 161.025C291.894 200.568 319.225 251.203 337.256 299.09C335.041 302.423 332.308 305.571 329.861 308.744C325.444 314.469 321.155 320.206 317.152 326.228C298.118 354.383 284.279 385.718 276.292 418.751C273.957 428.672 272.507 438.668 270.719 448.685C267.924 449.746 265.044 450.575 262.165 451.373C217.236 463.83 168.57 465.018 122.297 461.859C116.858 461.488 104.683 461.63 100.349 459.177C98.5229 456.841 98.2933 453.991 98.2358 451.116C98.0231 440.489 101.483 382.992 107.436 377.597C108.674 376.475 111.722 377.412 113.244 377.631C147.238 382.515 180.971 388.868 215.19 392.133C224.054 393.022 233.001 393.451 241.89 394.08C233.321 390.313 224.945 386.122 216.37 382.362C199.302 374.858 181.885 368.177 164.178 362.341C157.644 360.208 116.661 349.003 115.359 348.048C114.319 347.286 114.079 346.062 114.053 344.834C113.955 340.224 115.922 334.699 117.12 330.247C122.511 310.215 136.156 268.811 149.866 253.83C190.88 278.059 232.849 300.632 275.673 321.497C255.921 297.764 233.432 275.417 210.624 254.63C203.125 247.839 195.539 241.144 187.87 234.546C182.536 229.964 174.591 224.482 170.627 218.814C173.142 213.762 177.18 208.921 180.618 204.449C198.094 181.72 219.404 160.058 243.252 143.992Z" />
    <path fill="#0D0D2B" fill-opacity="0.98823529"
      d="M327.017 0L651.871 0L652.011 0.406056C648.19 0.859324 644.11 0.503965 640.249 0.47918L619.403 0.422836L544.465 0.203993L410.663 0.341007C382.742 0.453142 354.783 1.08162 326.863 0.48681L327.017 0Z" />
    <path fill="#4F2E6E" fill-opacity="0.9137255"
      d="M303.215 0L318.11 0L318.184 0.426758C313.641 0.476851 307.49 1.22003 303.215 0Z" />
    <path fill="#4F2E6E" fill-opacity="0.96862745"
      d="M318.11 0L327.017 0L326.863 0.48681C323.991 0.338781 321.063 0.43891 318.184 0.426758L318.11 0Z" />
  </g>
</svg>