<?xml version="1.0" encoding="utf-8" ?>
<svg xmlns="http://www.w3.org/2000/svg" xmlns:xlink="http://www.w3.org/1999/xlink" width="843" height="838">
  <defs>
    <linearGradient id="gradient_0" gradientUnits="userSpaceOnUse" x1="645.62939" y1="867.72906" x2="198.27846"
      y2="-30.797499">
      <stop offset="0" stop-color="#00081C" />
      <stop offset="1" stop-color="#261341" />
    </linearGradient>
  </defs>
  <path fill="url(#gradient_0)"
    d="M299.355 0L303.215 0C307.49 1.22003 313.641 0.476851 318.184 0.426758C321.063 0.43891 323.991 0.338781 326.863 0.48681C354.783 1.08162 382.742 0.453142 410.663 0.341007L544.465 0.203993L619.403 0.422836L640.249 0.47918C644.11 0.503965 648.19 0.859324 652.011 0.406056C660.196 0.676101 668.562 0.523279 676.705 1.22782C722.591 5.19777 763.552 19.9748 795.6 54.1506C826.247 86.8319 840.482 130.098 842.491 174.255C842.909 175.301 842.96 176.046 842.981 177.175C843.227 190.51 843.005 203.89 843.006 217.228L843.009 295.127L843.009 528.767C843.008 542.916 843.652 656.759 842.696 659.172C842.631 659.337 842.555 659.498 842.485 659.661C841.764 671.145 840.874 682.546 838.778 693.882C831.872 731.232 813.788 767.377 785.051 792.705C759.243 815.452 729.016 829.124 695.117 834.68C690.888 835.405 686.634 835.973 682.363 836.383C677.676 836.809 671.811 836.498 667.403 838L178.281 838C174.553 836.828 170.195 836.986 166.312 836.65C160.92 836.166 155.541 835.54 150.182 834.772C120.984 830.618 93.3074 819.162 69.7167 801.465C31.2924 772.573 10.2003 730.404 3.5649 683.456C-0.499797 654.697 0.913146 625.032 0.642364 596.036C0.448034 568.935 0.511756 541.832 0.833523 514.732L0.937918 414.769L0.909502 254.232L0.891257 207.863C0.893378 188.55 0.961973 169.584 3.82252 150.424C8.27262 120.619 18.9644 92.3101 37.1749 68.1343C67.0065 28.5308 109.363 7.96679 158.05 2.72102C174.238 0.97681 190.346 0.927231 206.602 0.892166L251.067 0.817553C261.477 0.795148 271.886 0.714968 282.294 0.577016C287.734 0.516218 293.574 0.874137 298.943 0.0674933C299.081 0.0468408 299.218 0.0224978 299.355 0Z" />
  <path fill="#F83F6F"
    d="M 499.426 249.63 C 507.541 249.22 515.673 249.322 523.774 249.934 C 573.949 253.959 620.499 277.652 653.278 315.85 C 681.167 348.67 697.491 389.748 699.738 432.757 C 700.33 444.307 699.641 455.709 698.739 467.227 C 679.002 419.726 653.504 381.189 611.964 350.055 C 573.749 321.413 527.566 300.293 479.333 297.78 C 463.476 296.955 448.173 298.225 432.494 300.477 C 444.528 302.891 456.65 304.498 468.664 307.169 C 494.433 312.898 520.158 321.818 544.247 332.575 C 582.852 349.994 617.419 375.238 645.761 406.71 C 655.562 417.499 664.545 428.994 673.355 440.597 C 680.263 449.695 692.855 466.526 696.827 476.882 C 695.002 487.397 692.699 497.537 689.432 507.703 C 680.219 494.021 670.27 481.068 658.538 469.43 C 623.303 434.475 573.135 421.428 524.87 419.118 C 517.33 418.757 509.718 418.964 502.169 418.999 C 476.35 419.254 447.137 424.139 423.762 435.398 C 466.33 431.194 509.28 433.065 551.32 440.955 C 592.512 449.087 663.619 476.881 687.762 512.868 C 678.608 543.186 660.686 571.881 639.748 595.418 C 605.17 634.288 551.559 662.986 499.169 665.912 C 447.383 668.804 397.116 648.949 358.704 614.634 C 319.868 579.4 296.393 530.346 293.317 478 C 290.237 421.644 315.188 361.504 352.513 319.957 C 390.302 278.072 443.1 252.798 499.426 249.63 Z M 567.956 579.549 C 562.547 583.416 556.756 587.576 550.752 590.441 C 508.053 587.443 466.182 569.583 430.409 546.84 C 417.063 538.354 404.457 528.41 390.822 520.452 C 409.769 549.687 441 570.71 472.437 584.735 C 491.199 593.014 511.194 599.776 531.774 601.229 C 498.816 616.597 461.814 622.79 425.911 626.457 C 474.674 636.155 525.292 626.064 566.606 598.407 C 599.519 576.602 628.75 544.949 641.184 506.854 L 640.834 506.178 C 619.204 533.171 596.234 559.331 567.956 579.549 Z" />
  <path fill="#F83F6F"
    d="M243.252 143.992C248.811 147.305 255.182 155.968 259.345 161.025C291.894 200.568 319.225 251.203 337.256 299.09C335.041 302.423 332.308 305.571 329.861 308.744C325.444 314.469 321.155 320.206 317.152 326.228C298.118 354.383 284.279 385.718 276.292 418.751C273.957 428.672 272.507 438.668 270.719 448.685C267.924 449.746 265.044 450.575 262.165 451.373C217.236 463.83 168.57 465.018 122.297 461.859C116.858 461.488 104.683 461.63 100.349 459.177C98.5229 456.841 98.2933 453.991 98.2358 451.116C98.0231 440.489 101.483 382.992 107.436 377.597C108.674 376.475 111.722 377.412 113.244 377.631C147.238 382.515 180.971 388.868 215.19 392.133C224.054 393.022 233.001 393.451 241.89 394.08C233.321 390.313 224.945 386.122 216.37 382.362C199.302 374.858 181.885 368.177 164.178 362.341C157.644 360.208 116.661 349.003 115.359 348.048C114.319 347.286 114.079 346.062 114.053 344.834C113.955 340.224 115.922 334.699 117.12 330.247C122.511 310.215 136.156 268.811 149.866 253.83C190.88 278.059 232.849 300.632 275.673 321.497C255.921 297.764 233.432 275.417 210.624 254.63C203.125 247.839 195.539 241.144 187.87 234.546C182.536 229.964 174.591 224.482 170.627 218.814C173.142 213.762 177.18 208.921 180.618 204.449C198.094 181.72 219.404 160.058 243.252 143.992Z" />
</svg>